<svg xmlns="http://www.w3.org/2000/svg" width="30" height="30" viewBox="0 0 30 30">
  <defs>
    <style>
      .a {
        fill: #ccc;
      }
    </style>
  </defs>
  <title>info</title>
  <path class="a" d="M14.87.3a14.79,14.79,0,1,0,15,14.59A14.79,14.79,0,0,0,14.87.3ZM16.5,5.23a1.7,1.7,0,0,1,2,1.87,2.48,2.48,0,0,1-2.7,2.4c-1.43,0-2.1-.72-2.06-1.9A2.55,2.55,0,0,1,16.5,5.23ZM12.65,24.34c-1,0-1.78-.63-1.06-3.37l1.18-4.86c.2-.78.24-1.09,0-1.09a7.84,7.84,0,0,0-2.43,1.07l-.51-.84c2.5-2.08,5.37-3.31,6.61-3.31,1,0,1.19,1.21.68,3.08l-1.35,5.12c-.24.91-.14,1.22.1,1.22a5.39,5.39,0,0,0,2.31-1.15l.58.78C16.33,23.4,13.68,24.34,12.65,24.34Z"/>
</svg>
